<svg xmlns="http://www.w3.org/2000/svg" width="960" height="600" viewBox="0 0 960 600">
  <title>Board Governance Reporting — ARAF Signal Package</title>
  <desc>Board-ready governance reporting dashboard showing the six components a board requires for adequate autonomous system oversight. Component 1: System inventory with autonomy levels. Component 2: GBI composite scores across the portfolio. Component 3: Dimensional exposure indicators. Component 4: Evidence maturity profile. Component 5: Remediation status and progress. Component 6: Independent assurance line. Also shows trigger log, GCI status, and multiplier flag. From ARAF v3.0, 2026.</desc>
  <defs>
    <style>.serif{font-family:Georgia,'Times New Roman',serif}.mono{font-family:'Courier New',Courier,monospace}</style>
  </defs>

  <rect width="960" height="600" fill="#f7f5f0"/>
  <rect x="20" y="20" width="920" height="560" fill="#ffffff" stroke="#d4d0c8" stroke-width="1"/>

  <!-- Registration marks -->
  <line x1="20" y1="26" x2="20" y2="20" stroke="#d4d0c8" stroke-width="0.75"/>
  <line x1="14" y1="20" x2="20" y2="20" stroke="#d4d0c8" stroke-width="0.75"/>
  <line x1="940" y1="26" x2="940" y2="20" stroke="#d4d0c8" stroke-width="0.75"/>
  <line x1="940" y1="20" x2="946" y2="20" stroke="#d4d0c8" stroke-width="0.75"/>
  <line x1="20" y1="574" x2="20" y2="580" stroke="#d4d0c8" stroke-width="0.75"/>
  <line x1="14" y1="580" x2="20" y2="580" stroke="#d4d0c8" stroke-width="0.75"/>
  <line x1="940" y1="574" x2="940" y2="580" stroke="#d4d0c8" stroke-width="0.75"/>
  <line x1="940" y1="580" x2="946" y2="580" stroke="#d4d0c8" stroke-width="0.75"/>

  <!-- Header -->
  <text x="480" y="48" text-anchor="middle" font-size="7.5" font-weight="bold" fill="#7a7a72" letter-spacing="3" class="mono">BOARD GOVERNANCE REPORTING — ARAF SIGNAL PACKAGE</text>
  <line x1="40" y1="54" x2="920" y2="54" stroke="#d4d0c8" stroke-width="0.75"/>

  <!-- Report header bar -->
  <rect x="40" y="62" width="880" height="30" fill="#0d0d0b"/>
  <text x="52" y="82" font-size="8" font-weight="bold" fill="#A88644" class="mono">AUTONOMOUS SYSTEMS GOVERNANCE REPORT</text>
  <text x="700" y="82" text-anchor="end" font-size="8" fill="#7a7a72" class="mono">Period: Q1 2026 · Prepared by: Accredited Assessor</text>
  <text x="880" y="82" text-anchor="end" font-size="8" fill="#A88644" class="mono">ARAF v3.0</text>

  <!-- ── ROW 1: System Inventory + GBI Scores ── -->

  <!-- System inventory -->
  <rect x="40" y="100" width="340" height="180" fill="#f7f5f0" stroke="#d4d0c8" stroke-width="0.75"/>
  <rect x="40" y="100" width="340" height="3" fill="#A88644"/>
  <text x="52" y="117" font-size="7" font-weight="bold" fill="#A88644" letter-spacing="1.5" class="mono">01 · SYSTEM INVENTORY</text>
  <line x1="52" y1="123" x2="368" y2="123" stroke="#e8e4db" stroke-width="0.75"/>

  <!-- Table header -->
  <rect x="52" y="128" width="316" height="16" fill="#e8e4db"/>
  <text x="58" y="140" font-size="7" font-weight="bold" fill="#7a7a72" class="mono">SYSTEM</text>
  <text x="190" y="140" font-size="7" font-weight="bold" fill="#7a7a72" class="mono">AUTONOMY LEVEL</text>
  <text x="320" y="140" font-size="7" font-weight="bold" fill="#7a7a72" class="mono">STATUS</text>

  <!-- System rows -->
  <rect x="52" y="144" width="316" height="18" fill="white" stroke="#e8e4db" stroke-width="0.5"/>
  <text x="58" y="157" font-size="8" fill="#0d0d0b" class="serif">Credit Decision Engine</text>
  <text x="190" y="157" font-size="7.5" fill="#3a3a35" class="mono">D1: 2 · Supervised</text>
  <rect x="320" y="147" width="42" height="12" rx="2" fill="#1e3a1e"/>
  <text x="341" y="157" text-anchor="middle" font-size="7" fill="#6bbf6b" class="mono">CERTIFIED</text>

  <rect x="52" y="162" width="316" height="18" fill="#fafaf8" stroke="#e8e4db" stroke-width="0.5"/>
  <text x="58" y="175" font-size="8" fill="#0d0d0b" class="serif">Fraud Detection System</text>
  <text x="190" y="175" font-size="7.5" fill="#3a3a35" class="mono">D1: 3 · Conditional</text>
  <rect x="320" y="165" width="48" height="12" rx="2" fill="#1e3220"/>
  <text x="344" y="175" text-anchor="middle" font-size="7" fill="#8fc98f" class="mono">COMPLIANT</text>

  <rect x="52" y="180" width="316" height="18" fill="white" stroke="#e8e4db" stroke-width="0.5"/>
  <text x="58" y="193" font-size="8" fill="#0d0d0b" class="serif">Customer Comms Agent</text>
  <text x="190" y="193" font-size="7.5" fill="#3a3a35" class="mono">D1: 4 · Autonomous</text>
  <rect x="320" y="183" width="42" height="12" rx="2" fill="#2a2a16"/>
  <text x="341" y="193" text-anchor="middle" font-size="7" fill="#c9c070" class="mono">ASSESSED</text>

  <rect x="52" y="198" width="316" height="18" fill="#fafaf8" stroke="#e8e4db" stroke-width="0.5"/>
  <text x="58" y="211" font-size="8" fill="#0d0d0b" class="serif">Pricing Model v4</text>
  <text x="190" y="211" font-size="7.5" fill="#3a3a35" class="mono">D1: 3 · Conditional</text>
  <rect x="320" y="201" width="60" height="12" rx="2" fill="#2a1616"/>
  <text x="350" y="211" text-anchor="middle" font-size="7" fill="#c97070" class="mono">REMEDIATION</text>

  <text x="210" y="266" text-anchor="middle" font-size="8" fill="#7a7a72" font-style="italic" class="serif">4 systems registered · 1 requires board attention</text>

  <!-- GBI Score panel -->
  <rect x="392" y="100" width="268" height="180" fill="#0d0d0b" stroke="#0d0d0b"/>
  <rect x="392" y="100" width="268" height="3" fill="#A88644"/>
  <text x="404" y="117" font-size="7" font-weight="bold" fill="#A88644" letter-spacing="1.5" class="mono">02 · GBI COMPOSITE SCORES</text>
  <line x1="404" y1="123" x2="648" y2="123" stroke="#3a3a35" stroke-width="0.75"/>

  <!-- GBI bars -->
  <!-- System 1 -->
  <text x="404" y="142" font-size="7.5" fill="#d4d0c8" class="serif">Credit Decision Engine</text>
  <rect x="404" y="147" width="200" height="8" fill="#1a1a17" rx="1"/>
  <rect x="404" y="147" width="62" height="8" fill="#A88644" rx="1"/>
  <text x="612" y="156" font-size="8" font-weight="bold" fill="#A88644" class="mono">1.55</text>

  <!-- System 2 -->
  <text x="404" y="172" font-size="7.5" fill="#d4d0c8" class="serif">Fraud Detection System</text>
  <rect x="404" y="177" width="200" height="8" fill="#1a1a17" rx="1"/>
  <rect x="404" y="177" width="96" height="8" fill="#8fc98f" rx="1"/>
  <text x="612" y="186" font-size="8" font-weight="bold" fill="#8fc98f" class="mono">2.40</text>

  <!-- System 3 -->
  <text x="404" y="202" font-size="7.5" fill="#d4d0c8" class="serif">Customer Comms Agent</text>
  <rect x="404" y="207" width="200" height="8" fill="#1a1a17" rx="1"/>
  <rect x="404" y="207" width="122" height="8" fill="#c9c070" rx="1"/>
  <text x="612" y="216" font-size="8" font-weight="bold" fill="#c9c070" class="mono">3.05</text>

  <!-- System 4 — red -->
  <text x="404" y="232" font-size="7.5" fill="#d4d0c8" class="serif">Pricing Model v4</text>
  <rect x="404" y="237" width="200" height="8" fill="#1a1a17" rx="1"/>
  <rect x="404" y="237" width="148" height="8" fill="#c97070" rx="1"/>
  <text x="612" y="246" font-size="8" font-weight="bold" fill="#c97070" class="mono">3.70</text>

  <!-- Scale labels -->
  <line x1="404" y1="254" x2="604" y2="254" stroke="#3a3a35" stroke-width="0.5"/>
  <text x="404" y="264" font-size="6.5" fill="#7a7a72" class="mono">1.0</text>
  <text x="476" y="264" font-size="6.5" fill="#7a7a72" class="mono">2.5</text>
  <text x="600" y="264" font-size="6.5" fill="#7a7a72" class="mono">5.0</text>
  <!-- Threshold lines -->
  <line x1="474" y1="140" x2="474" y2="254" stroke="#A88644" stroke-width="0.5" stroke-dasharray="2,2" opacity="0.5"/>
  <line x1="544" y1="140" x2="544" y2="254" stroke="#c97070" stroke-width="0.5" stroke-dasharray="2,2" opacity="0.5"/>
  <text x="474" y="275" text-anchor="middle" font-size="6" fill="#A88644" class="mono">≤1.75</text>
  <text x="544" y="275" text-anchor="middle" font-size="6" fill="#7a7a72" class="mono">≤2.50</text>

  <!-- ── Multiplier flag + GCI ── -->
  <rect x="672" y="100" width="248" height="180" fill="#f7f5f0" stroke="#d4d0c8" stroke-width="0.75"/>
  <rect x="672" y="100" width="248" height="3" fill="#c9402a"/>
  <text x="684" y="117" font-size="7" font-weight="bold" fill="#c9402a" letter-spacing="1.5" class="mono">03 · MULTIPLIER FLAGS + GCI</text>
  <line x1="684" y1="123" x2="908" y2="123" stroke="#e8e4db" stroke-width="0.75"/>

  <!-- Multiplier alert -->
  <rect x="684" y="130" width="224" height="44" fill="#fff8f5" stroke="#e8c4b8" stroke-width="0.75"/>
  <text x="696" y="146" font-size="7.5" font-weight="bold" fill="#c9402a" class="mono">⚠ MULTIPLIER ACTIVE</text>
  <text x="696" y="160" font-size="8" fill="#3a3a35" class="serif">Pricing Model v4: Leverage Collapse</text>
  <text x="696" y="172" font-size="7.5" fill="#7a7a72" font-style="italic" class="serif">D5 ≥ 4 + D4 ≥ 3 · Board escalation required</text>

  <!-- GCI status -->
  <text x="684" y="194" font-size="7" font-weight="bold" fill="#7a7a72" letter-spacing="1.5" class="mono">GCI STATUS (LAST 180 DAYS)</text>
  <rect x="684" y="200" width="224" height="16" fill="white" stroke="#e8e4db" stroke-width="0.5"/>
  <text x="690" y="213" font-size="7.5" fill="#0d0d0b" class="serif">Credit Decision Engine</text>
  <text x="872" y="213" text-anchor="end" font-size="8" font-weight="bold" fill="#6bbf6b" class="mono">0.91</text>
  <rect x="684" y="216" width="224" height="16" fill="#fafaf8" stroke="#e8e4db" stroke-width="0.5"/>
  <text x="690" y="229" font-size="7.5" fill="#0d0d0b" class="serif">Fraud Detection System</text>
  <text x="872" y="229" text-anchor="end" font-size="8" font-weight="bold" fill="#8fc98f" class="mono">0.74</text>
  <rect x="684" y="232" width="224" height="16" fill="white" stroke="#e8e4db" stroke-width="0.5"/>
  <text x="690" y="245" font-size="7.5" fill="#0d0d0b" class="serif">Customer Comms Agent</text>
  <text x="872" y="245" text-anchor="end" font-size="8" font-weight="bold" fill="#c9c070" class="mono">0.61</text>
  <rect x="684" y="248" width="224" height="16" fill="#fafaf8" stroke="#e8e4db" stroke-width="0.5"/>
  <text x="690" y="261" font-size="7.5" fill="#0d0d0b" class="serif">Pricing Model v4</text>
  <text x="872" y="261" text-anchor="end" font-size="8" font-weight="bold" fill="#c97070" class="mono">Not assessed</text>

  <!-- ── ROW 2: Evidence Tier + Trigger Log + Board Questions ── -->

  <!-- Evidence tier profile -->
  <rect x="40" y="292" width="270" height="160" fill="#f7f5f0" stroke="#d4d0c8" stroke-width="0.75"/>
  <rect x="40" y="292" width="270" height="3" fill="#A88644"/>
  <text x="52" y="309" font-size="7" font-weight="bold" fill="#A88644" letter-spacing="1.5" class="mono">04 · EVIDENCE MATURITY PROFILE</text>
  <line x1="52" y1="315" x2="298" y2="315" stroke="#e8e4db" stroke-width="0.75"/>

  <!-- Evidence tier rows -->
  <text x="52" y="332" font-size="7" font-weight="bold" fill="#7a7a72" letter-spacing="1" class="mono">TIER 1  Infrastructure-generated (highest)</text>
  <rect x="52" y="337" width="230" height="10" fill="#e8e4db" rx="1"/>
  <rect x="52" y="337" width="168" height="10" fill="#A88644" rx="1"/>
  <text x="286" y="347" text-anchor="end" font-size="7.5" fill="#A88644" class="mono">73%</text>

  <text x="52" y="362" font-size="7" font-weight="bold" fill="#7a7a72" letter-spacing="1" class="mono">TIER 2  Contemporaneous documentation</text>
  <rect x="52" y="367" width="230" height="10" fill="#e8e4db" rx="1"/>
  <rect x="52" y="367" width="55" height="10" fill="#7a7a72" rx="1"/>
  <text x="286" y="377" text-anchor="end" font-size="7.5" fill="#7a7a72" class="mono">24%</text>

  <text x="52" y="392" font-size="7" font-weight="bold" fill="#7a7a72" letter-spacing="1" class="mono">TIER 3  Reconstructed documentation</text>
  <rect x="52" y="397" width="230" height="10" fill="#e8e4db" rx="1"/>
  <rect x="52" y="397" width="7" height="10" fill="#c9c070" rx="1"/>
  <text x="286" y="407" text-anchor="end" font-size="7.5" fill="#c9c070" class="mono">3%</text>

  <text x="175" y="432" text-anchor="middle" font-size="7.5" fill="#7a7a72" font-style="italic" class="serif">Strong Tier 1 coverage · on target for Certified threshold</text>
  <text x="175" y="445" text-anchor="middle" font-size="7.5" fill="#7a7a72" font-style="italic" class="serif">Tier 3 in Pricing Model v4 is a remediation item</text>

  <!-- Trigger log -->
  <rect x="322" y="292" width="296" height="160" fill="#f7f5f0" stroke="#d4d0c8" stroke-width="0.75"/>
  <rect x="322" y="292" width="296" height="3" fill="#A88644"/>
  <text x="334" y="309" font-size="7" font-weight="bold" fill="#A88644" letter-spacing="1.5" class="mono">05 · TRIGGER EVENT LOG</text>
  <line x1="334" y1="315" x2="606" y2="315" stroke="#e8e4db" stroke-width="0.75"/>

  <rect x="334" y="320" width="280" height="16" fill="#e8e4db"/>
  <text x="340" y="332" font-size="7" font-weight="bold" fill="#7a7a72" class="mono">DATE</text>
  <text x="400" y="332" font-size="7" font-weight="bold" fill="#7a7a72" class="mono">SYSTEM</text>
  <text x="510" y="332" font-size="7" font-weight="bold" fill="#7a7a72" class="mono">EVENT · STATUS</text>

  <rect x="334" y="336" width="280" height="16" fill="white" stroke="#e8e4db" stroke-width="0.5"/>
  <text x="340" y="348" font-size="7.5" fill="#7a7a72" class="mono">15 Jan</text>
  <text x="400" y="348" font-size="7.5" fill="#0d0d0b" class="serif">Pricing v4</text>
  <text x="510" y="348" font-size="7.5" fill="#c97070" class="serif">Provider change · Open</text>

  <rect x="334" y="352" width="280" height="16" fill="#fafaf8" stroke="#e8e4db" stroke-width="0.5"/>
  <text x="340" y="364" font-size="7.5" fill="#7a7a72" class="mono">28 Jan</text>
  <text x="400" y="364" font-size="7.5" fill="#0d0d0b" class="serif">Comms Agent</text>
  <text x="510" y="364" font-size="7.5" fill="#c9c070" class="serif">Scope expansion · Notified</text>

  <rect x="334" y="368" width="280" height="16" fill="white" stroke="#e8e4db" stroke-width="0.5"/>
  <text x="340" y="380" font-size="7.5" fill="#7a7a72" class="mono">02 Feb</text>
  <text x="400" y="380" font-size="7.5" fill="#0d0d0b" class="serif">Credit Engine</text>
  <text x="510" y="380" font-size="7.5" fill="#6bbf6b" class="serif">Surveillance due · Scheduled</text>

  <rect x="334" y="384" width="280" height="16" fill="#fafaf8" stroke="#e8e4db" stroke-width="0.5"/>
  <text x="340" y="396" font-size="7.5" fill="#7a7a72" class="mono">14 Mar</text>
  <text x="400" y="396" font-size="7.5" fill="#0d0d0b" class="serif">Fraud Detection</text>
  <text x="510" y="396" font-size="7.5" fill="#6bbf6b" class="serif">Annual reassessment · Complete</text>

  <text x="470" y="438" text-anchor="middle" font-size="7.5" fill="#c9402a" font-weight="bold" font-style="italic" class="serif">1 open trigger requires board resolution before next quarter</text>
  <text x="470" y="450" text-anchor="middle" font-size="7" fill="#7a7a72" font-style="italic" class="serif">Notification window: 30 days from discovery of trigger event</text>

  <!-- Five governance questions / Independent assurance -->
  <rect x="630" y="292" width="290" height="160" fill="#0d0d0b" stroke="#0d0d0b"/>
  <rect x="630" y="292" width="290" height="3" fill="#A88644"/>
  <text x="642" y="309" font-size="7" font-weight="bold" fill="#A88644" letter-spacing="1.5" class="mono">06 · BOARD GOVERNANCE QUESTIONS</text>
  <line x1="642" y1="315" x2="908" y2="315" stroke="#3a3a35" stroke-width="0.75"/>

  <rect x="642" y="321" width="266" height="14" fill="#1a1a17"/>
  <rect x="642" y="321" width="3" height="14" fill="#6bbf6b"/>
  <text x="652" y="332" font-size="7.5" fill="white" class="serif">Q1. Systems and autonomy levels?</text>
  <text x="896" y="332" text-anchor="end" font-size="7" fill="#6bbf6b" class="mono">ANSWERED</text>

  <rect x="642" y="338" width="266" height="14" fill="#111110"/>
  <rect x="642" y="338" width="3" height="14" fill="#6bbf6b"/>
  <text x="652" y="349" font-size="7.5" fill="white" class="serif">Q2. Named accountability per system?</text>
  <text x="896" y="349" text-anchor="end" font-size="7" fill="#6bbf6b" class="mono">ANSWERED</text>

  <rect x="642" y="355" width="266" height="14" fill="#1a1a17"/>
  <rect x="642" y="355" width="3" height="14" fill="#6bbf6b"/>
  <text x="652" y="366" font-size="7.5" fill="white" class="serif">Q3. Evidence base for governance claims?</text>
  <text x="896" y="366" text-anchor="end" font-size="7" fill="#6bbf6b" class="mono">ANSWERED</text>

  <rect x="642" y="372" width="266" height="14" fill="#111110"/>
  <rect x="642" y="372" width="3" height="14" fill="#6bbf6b"/>
  <text x="652" y="383" font-size="7.5" fill="white" class="serif">Q4. Last independent assessment?</text>
  <text x="896" y="383" text-anchor="end" font-size="7" fill="#6bbf6b" class="mono">ANSWERED</text>

  <rect x="642" y="389" width="266" height="14" fill="#1a1a17"/>
  <rect x="642" y="389" width="3" height="14" fill="#c9402a"/>
  <text x="652" y="400" font-size="7.5" fill="white" class="serif">Q5. How will board know if posture degrades?</text>
  <text x="896" y="400" text-anchor="end" font-size="7" fill="#c97070" class="mono">ACTION REQ.</text>

  <rect x="642" y="412" width="266" height="28" fill="#1a1a17" stroke="#3a3a35" stroke-width="0.75"/>
  <text x="775" y="425" text-anchor="middle" font-size="7.5" fill="#7a7a72" font-style="italic" class="serif">Q5 response: Pricing Model v4 trigger event</text>
  <text x="775" y="437" text-anchor="middle" font-size="7.5" fill="#A88644" font-style="italic" class="serif">open. AIOC escalation required this session.</text>

  <!-- Footer -->
  <line x1="40" y1="465" x2="920" y2="465" stroke="#d4d0c8" stroke-width="0.75"/>
  <text x="480" y="483" text-anchor="middle" font-size="8" fill="#7a7a72" font-style="italic" class="serif">This reporting package was produced by an accredited independent assessor. It does not constitute legal, regulatory, or underwriting advice.</text>
  <text x="480" y="498" text-anchor="middle" font-size="8.5" fill="#0d0d0b" font-weight="bold" font-style="italic" class="serif">A board that can answer all five governance questions from contemporaneous evidence has discharged its oversight obligation.</text>
  <line x1="40" y1="510" x2="920" y2="510" stroke="#e8e4db" stroke-width="0.75"/>
  <text x="480" y="526" text-anchor="middle" font-size="8" fill="#7a7a72" class="serif">Section 180(1) Corporations Act 2001 (Cth): duty of care requires informed judgment, not policy approval. Independent assessment provides the evidence base for that judgment.</text>
  <text x="900" y="552" text-anchor="end" font-size="7" fill="#b0aca4" class="mono">ARAF v3.0 · 2026 · Institute for Autonomous Governance Pty Ltd</text>
</svg>
